<svg width="16" height="14" viewBox="0 0 16 14" fill="none" xmlns="http://www.w3.org/2000/svg">
<path d="M0.5 3.25V10.75C0.5 11.413 0.763392 12.0489 1.23223 12.5178C1.70107 12.9866 2.33696 13.25 3 13.25H13C13.663 13.25 14.2989 12.9866 14.7678 12.5178C15.2366 12.0489 15.5 11.413 15.5 10.75V4.5C15.5 3.83696 15.2366 3.20107 14.7678 2.73223C14.2989 2.26339 13.663 2 13 2H6.96875L5.5775 0.8875C5.46687 0.798741 5.32934 0.750253 5.1875 0.75H3C2.33696 0.75 1.70107 1.01339 1.23223 1.48223C0.763392 1.95107 0.5 2.58696 0.5 3.25ZM1.75 3.25C1.75 2.91848 1.8817 2.60054 2.11612 2.36612C2.35054 2.1317 2.66848 2 3 2H4.96875L6.05375 2.8675L4.94625 3.875H1.75V3.25ZM7.49125 3.25H13C13.3315 3.25 13.6495 3.3817 13.8839 3.61612C14.1183 3.85054 14.25 4.16848 14.25 4.5V10.75C14.25 11.0815 14.1183 11.3995 13.8839 11.6339C13.6495 11.8683 13.3315 12 13 12H3C2.66848 12 2.35054 11.8683 2.11612 11.6339C1.8817 11.3995 1.75 11.0815 1.75 10.75V5.125H5.1875C5.34283 5.12491 5.49256 5.06698 5.6075 4.9625L7.49125 3.25Z" fill="#0074BC"/>
</svg>
