<svg width="16" height="20" viewBox="0 0 16 20" fill="none" xmlns="http://www.w3.org/2000/svg">
    <path fill-rule="evenodd" clip-rule="evenodd" d="M2 3C2 2.44772 2.44772 2 3 2H12V4H3C2.44772 4 2 3.55228 2 3ZM2 5.82929C2.31278 5.93985 2.64936 6 3 6H12H13H14V18H3.5C2.67157 18 2 17.3284 2 16.5V5.82929ZM0 3C0 1.34315 1.34315 0 3 0H12C13.1046 0 14 0.895431 14 2V4C15.1046 4 16 4.89543 16 6V18C16 19.1046 15.1046 20 14 20H3.5C1.567 20 0 18.433 0 16.5V3ZM4 10C4 9.44771 4.44772 9 5 9H11C11.5523 9 12 9.44771 12 10C12 10.5523 11.5523 11 11 11H5C4.44772 11 4 10.5523 4 10ZM5 12.5C4.44772 12.5 4 12.9477 4 13.5C4 14.0523 4.44772 14.5 5 14.5H8.5C9.05228 14.5 9.5 14.0523 9.5 13.5C9.5 12.9477 9.05228 12.5 8.5 12.5H5Z" fill="#0074BC"/>
</svg>
