<svg width="16" height="17" viewBox="0 0 16 17" fill="none" xmlns="http://www.w3.org/2000/svg">
<path d="M7.14125 0.57703C7.37334 0.357609 7.68061 0.235352 8 0.235352C8.31939 0.235352 8.62666 0.357609 8.85875 0.57703L14.9137 6.30078C15.2888 6.65453 15.5 7.14828 15.5 7.66328V14.6258C15.5 15.1231 15.3025 15.6 14.9508 15.9516C14.5992 16.3032 14.1223 16.5008 13.625 16.5008H11.125C10.8787 16.5008 10.6347 16.4522 10.4072 16.3579C10.1796 16.2636 9.97286 16.1254 9.79873 15.9512C9.62461 15.7769 9.48652 15.5701 9.39237 15.3424C9.29821 15.1148 9.24984 14.8709 9.25 14.6245V11.4995C9.25 11.3338 9.18415 11.1748 9.06694 11.0576C8.94973 10.9404 8.79076 10.8745 8.625 10.8745H7.375C7.20924 10.8745 7.05027 10.9404 6.93306 11.0576C6.81585 11.1748 6.75 11.3338 6.75 11.4995V14.6245C6.75 15.1218 6.55246 15.5987 6.20083 15.9504C5.84919 16.302 5.37228 16.4995 4.875 16.4995H2.375C1.87772 16.4995 1.40081 16.302 1.04917 15.9504C0.697544 15.5987 0.5 15.1218 0.5 14.6245V7.66203C0.5 7.14703 0.7125 6.65328 1.0875 6.29953L7.14125 0.57453V0.57703ZM8 1.48453L1.945 7.20953C1.88353 7.26781 1.83455 7.33797 1.80103 7.41575C1.76751 7.49354 1.75014 7.57733 1.75 7.66203V14.6245C1.75 14.7903 1.81585 14.9493 1.93306 15.0665C2.05027 15.1837 2.20924 15.2495 2.375 15.2495H4.875C5.04076 15.2495 5.19973 15.1837 5.31694 15.0665C5.43415 14.9493 5.5 14.7903 5.5 14.6245V11.4995C5.5 11.0023 5.69754 10.5253 6.04917 10.1737C6.40081 9.82207 6.87772 9.62453 7.375 9.62453H8.625C9.12228 9.62453 9.59919 9.82207 9.95083 10.1737C10.3025 10.5253 10.5 11.0023 10.5 11.4995V14.6245C10.5 14.7903 10.5658 14.9493 10.6831 15.0665C10.8003 15.1837 10.9592 15.2495 11.125 15.2495H13.625C13.7908 15.2495 13.9497 15.1837 14.0669 15.0665C14.1842 14.9493 14.25 14.7903 14.25 14.6245V7.66203C14.25 7.57712 14.2327 7.49309 14.1992 7.41508C14.1657 7.33706 14.1166 7.2667 14.055 7.20828L8 1.48453Z" fill="#0074BC"/>
</svg>
