<svg width="18" height="18" viewBox="0 0 18 18" fill="none" xmlns="http://www.w3.org/2000/svg">
<path fill-rule="evenodd" clip-rule="evenodd" d="M2.00141 7.24322L9 2L15.9881 7.2434L15.9998 16H12.5V9.5C12.5 8.67157 11.8284 8 11 8H7C6.17157 8 5.5 8.67157 5.5 9.5V16H2.01316L2.00141 7.24322ZM7.5 16H10.5V10H7.5V16ZM0.562909 17.4504C0.211018 17.0986 0.0133277 16.6213 0.0133277 16.1236L0.00140561 7.24591C0.000521863 6.58636 0.324856 5.96879 0.868345 5.59514L7.86694 0.351918C8.55028 -0.117879 9.45265 -0.117255 10.1353 0.353489L17.1234 5.59688C17.664 5.96965 17.9872 6.58405 17.9881 7.24071L18 16.1236C18 16.6213 17.8023 17.0986 17.4504 17.4504C17.0985 17.8023 16.6213 18 16.1236 18H1.88972C1.39207 18 0.9148 17.8023 0.562909 17.4504Z" fill="#0074BC"/>
</svg>
