<svg width="20" height="20" viewBox="0 0 20 20" fill="none" xmlns="http://www.w3.org/2000/svg">
<path fill-rule="evenodd" clip-rule="evenodd" d="M10 2C5.58172 2 2 5.58172 2 10C2 14.4183 5.58172 18 10 18C14.4183 18 18 14.4183 18 10C18 5.58172 14.4183 2 10 2ZM0 10C0 4.47715 4.47715 0 10 0C15.5228 0 20 4.47715 20 10C20 15.5228 15.5228 20 10 20C4.47715 20 0 15.5228 0 10ZM9 6V9H11C11.8284 9 12.5 8.32843 12.5 7.5C12.5 6.67157 11.8284 6 11 6H9ZM9 11H11C12.933 11 14.5 9.433 14.5 7.5C14.5 5.567 12.933 4 11 4H8.5C7.67157 4 7 4.67157 7 5.5V9H6C5.44772 9 5 9.44772 5 10C5 10.5523 5.44772 11 6 11H7V12H6C5.44772 12 5 12.4477 5 13C5 13.5523 5.44772 14 6 14H7V15C7 15.5523 7.44772 16 8 16C8.55228 16 9 15.5523 9 15V14H10C10.5523 14 11 13.5523 11 13C11 12.4477 10.5523 12 10 12H9V11Z" fill="#0074BC"/>
</svg>
