<svg width="16" height="20" viewBox="0 0 16 20" fill="none" xmlns="http://www.w3.org/2000/svg">
<path fill-rule="evenodd" clip-rule="evenodd" d="M2.75 0C2.01142 0 1.30898 0.302046 0.795568 0.830129C0.283084 1.35726 0 2.06634 0 2.8V17.2C0 17.9337 0.283084 18.6427 0.795568 19.1699C1.30898 19.698 2.01142 20 2.75 20H13.25C13.9886 20 14.691 19.698 15.2044 19.1699C15.7169 18.6427 16 17.9337 16 17.2V5.5C16 5.20808 15.8724 4.93073 15.6508 4.74074L10.4008 0.240743C10.2195 0.0853922 9.98871 0 9.75 0H2.75ZM2.22956 2.22429C2.37252 2.07724 2.56032 2 2.75 2H8.66669V6.5C8.66669 7.05228 9.1144 7.5 9.66669 7.5H14V17.2C14 17.4211 13.9143 17.6277 13.7704 17.7757C13.6275 17.9228 13.4397 18 13.25 18H2.75C2.56032 18 2.37252 17.9228 2.22956 17.7757C2.08566 17.6277 2 17.4211 2 17.2V2.8C2 2.57888 2.08566 2.37229 2.22956 2.22429ZM13.4634 5.5L10.6667 3.10281V5.5H13.4634ZM4 11C4 10.4477 4.44772 10 5 10H11C11.5523 10 12 10.4477 12 11C12 11.5523 11.5523 12 11 12H5C4.44772 12 4 11.5523 4 11ZM5 13.5C4.44772 13.5 4 13.9477 4 14.5C4 15.0523 4.44772 15.5 5 15.5H8.5C9.05228 15.5 9.5 15.0523 9.5 14.5C9.5 13.9477 9.05228 13.5 8.5 13.5H5Z" fill="#838383"/>
</svg>
